<svg xmlns="http://www.w3.org/2000/svg" version="1.1" xmlns:xlink="http://www.w3.org/1999/xlink" xmlns:svgjs="http://svgjs.dev/svgjs" width="1440" height="560" preserveAspectRatio="none" viewBox="0 0 1440 560"><g mask="url(&quot;#SvgjsMask1000&quot;)" fill="none"><rect width="1440" height="560" x="0" y="0" fill="#0e2a47"></rect><path d="M-90.3 396.54L-90.3 396.54" stroke="#132e65" stroke-width="1.5"></path><path d="M-90.3 396.54L-48.5 518.84" stroke="#132e65" stroke-width="1.5"></path><path d="M-90.3 396.54L46.4 357.6" stroke="#132e65" stroke-width="1.5"></path><path d="M-90.3 396.54L45.47 556.93" stroke="#132e65" stroke-width="1.5"></path><path d="M-48.5 518.84L-48.5 518.84" stroke="#132e65" stroke-width="1.5"></path><path d="M-48.5 518.84L45.47 556.93" stroke="#132e65" stroke-width="1.5"></path><path d="M-48.5 518.84L-37.67 669.63" stroke="#132e65" stroke-width="1.5"></path><path d="M-48.5 518.84L46.4 357.6" stroke="#132e65" stroke-width="1.5"></path><path d="M-37.67 669.63L-37.67 669.63" stroke="#132e65" stroke-width="1.5"></path><path d="M-37.67 669.63L93.52 657.36" stroke="#132e65" stroke-width="1.5"></path><path d="M-37.67 669.63L45.47 556.93" stroke="#132e65" stroke-width="1.5"></path><path d="M-37.67 669.63L193.06 705.85" stroke="#132e65" stroke-width="1.5"></path><path d="M-37.67 669.63L-90.3 396.54" stroke="#132e65" stroke-width="1.5"></path><path d="M-37.67 669.63L241.15 516.09" stroke="#132e65" stroke-width="1.5"></path><path d="M46.4 357.6L46.4 357.6" stroke="#132e65" stroke-width="1.5"></path><path d="M46.4 357.6L195.88 389.71" stroke="#132e65" stroke-width="1.5"></path><path d="M45.47 556.93L45.47 556.93" stroke="#132e65" stroke-width="1.5"></path><path d="M45.47 556.93L93.52 657.36" stroke="#132e65" stroke-width="1.5"></path><path d="M93.52 657.36L93.52 657.36" stroke="#132e65" stroke-width="1.5"></path><path d="M93.52 657.36L193.06 705.85" stroke="#132e65" stroke-width="1.5"></path><path d="M195.88 389.71L195.88 389.71" stroke="#132e65" stroke-width="1.5"></path><path d="M195.88 389.71L241.15 516.09" stroke="#132e65" stroke-width="1.5"></path><path d="M195.88 389.71L372.88 364.49" stroke="#132e65" stroke-width="1.5"></path><path d="M195.88 389.71L45.47 556.93" stroke="#132e65" stroke-width="1.5"></path><path d="M195.88 389.71L399.58 501.03" stroke="#132e65" stroke-width="1.5"></path><path d="M241.15 516.09L241.15 516.09" stroke="#132e65" stroke-width="1.5"></path><path d="M241.15 516.09L399.58 501.03" stroke="#132e65" stroke-width="1.5"></path><path d="M241.15 516.09L359.84 646.76" stroke="#132e65" stroke-width="1.5"></path><path d="M241.15 516.09L193.06 705.85" stroke="#132e65" stroke-width="1.5"></path><path d="M241.15 516.09L45.47 556.93" stroke="#132e65" stroke-width="1.5"></path><path d="M241.15 516.09L372.88 364.49" stroke="#132e65" stroke-width="1.5"></path><path d="M193.06 705.85L193.06 705.85" stroke="#132e65" stroke-width="1.5"></path><path d="M193.06 705.85L359.84 646.76" stroke="#132e65" stroke-width="1.5"></path><path d="M193.06 705.85L45.47 556.93" stroke="#132e65" stroke-width="1.5"></path><path d="M372.88 364.49L372.88 364.49" stroke="#132e65" stroke-width="1.5"></path><path d="M372.88 364.49L399.58 501.03" stroke="#132e65" stroke-width="1.5"></path><path d="M399.58 501.03L399.58 501.03" stroke="#132e65" stroke-width="1.5"></path><path d="M399.58 501.03L359.84 646.76" stroke="#132e65" stroke-width="1.5"></path><path d="M399.58 501.03L550.01 560.97" stroke="#132e65" stroke-width="1.5"></path><path d="M399.58 501.03L505.06 650.47" stroke="#132e65" stroke-width="1.5"></path><path d="M399.58 501.03L558.65 344.69" stroke="#132e65" stroke-width="1.5"></path><path d="M359.84 646.76L359.84 646.76" stroke="#132e65" stroke-width="1.5"></path><path d="M359.84 646.76L505.06 650.47" stroke="#132e65" stroke-width="1.5"></path><path d="M359.84 646.76L550.01 560.97" stroke="#132e65" stroke-width="1.5"></path><path d="M359.84 646.76L93.52 657.36" stroke="#132e65" stroke-width="1.5"></path><path d="M558.65 344.69L558.65 344.69" stroke="#132e65" stroke-width="1.5"></path><path d="M558.65 344.69L705.7 360.79" stroke="#132e65" stroke-width="1.5"></path><path d="M558.65 344.69L665.94 227.69" stroke="#132e65" stroke-width="1.5"></path><path d="M558.65 344.69L372.88 364.49" stroke="#132e65" stroke-width="1.5"></path><path d="M558.65 344.69L550.01 560.97" stroke="#132e65" stroke-width="1.5"></path><path d="M558.65 344.69L684.8 545.6" stroke="#132e65" stroke-width="1.5"></path><path d="M550.01 560.97L550.01 560.97" stroke="#132e65" stroke-width="1.5"></path><path d="M550.01 560.97L505.06 650.47" stroke="#132e65" stroke-width="1.5"></path><path d="M550.01 560.97L684.8 545.6" stroke="#132e65" stroke-width="1.5"></path><path d="M550.01 560.97L696.53 651.62" stroke="#132e65" stroke-width="1.5"></path><path d="M505.06 650.47L505.06 650.47" stroke="#132e65" stroke-width="1.5"></path><path d="M665.94 227.69L665.94 227.69" stroke="#132e65" stroke-width="1.5"></path><path d="M665.94 227.69L705.7 360.79" stroke="#132e65" stroke-width="1.5"></path><path d="M705.7 360.79L705.7 360.79" stroke="#132e65" stroke-width="1.5"></path><path d="M684.8 545.6L684.8 545.6" stroke="#132e65" stroke-width="1.5"></path><path d="M684.8 545.6L696.53 651.62" stroke="#132e65" stroke-width="1.5"></path><path d="M684.8 545.6L851.6 526.85" stroke="#132e65" stroke-width="1.5"></path><path d="M684.8 545.6L705.7 360.79" stroke="#132e65" stroke-width="1.5"></path><path d="M696.53 651.62L696.53 651.62" stroke="#132e65" stroke-width="1.5"></path><path d="M696.53 651.62L849.27 707.74" stroke="#132e65" stroke-width="1.5"></path><path d="M859.77 61.42L859.77 61.42" stroke="#132e65" stroke-width="1.5"></path><path d="M859.77 61.42L1009.3 54.42" stroke="#132e65" stroke-width="1.5"></path><path d="M859.77 61.42L971.85 -83.93" stroke="#132e65" stroke-width="1.5"></path><path d="M856.12 251.94L856.12 251.94" stroke="#132e65" stroke-width="1.5"></path><path d="M856.12 251.94L994.82 237.66" stroke="#132e65" stroke-width="1.5"></path><path d="M856.12 251.94L942.21 375.97" stroke="#132e65" stroke-width="1.5"></path><path d="M856.12 251.94L705.7 360.79" stroke="#132e65" stroke-width="1.5"></path><path d="M851.6 526.85L851.6 526.85" stroke="#132e65" stroke-width="1.5"></path><path d="M851.6 526.85L1003.07 520.18" stroke="#132e65" stroke-width="1.5"></path><path d="M851.6 526.85L942.21 375.97" stroke="#132e65" stroke-width="1.5"></path><path d="M851.6 526.85L849.27 707.74" stroke="#132e65" stroke-width="1.5"></path><path d="M849.27 707.74L849.27 707.74" stroke="#132e65" stroke-width="1.5"></path><path d="M849.27 707.74L942.36 691.43" stroke="#132e65" stroke-width="1.5"></path><path d="M971.85 -83.93L971.85 -83.93" stroke="#132e65" stroke-width="1.5"></path><path d="M971.85 -83.93L1009.3 54.42" stroke="#132e65" stroke-width="1.5"></path><path d="M971.85 -83.93L1094.87 53.1" stroke="#132e65" stroke-width="1.5"></path><path d="M971.85 -83.93L1251.85 -85.66" stroke="#132e65" stroke-width="1.5"></path><path d="M971.85 -83.93L1116.5 193.63" stroke="#132e65" stroke-width="1.5"></path><path d="M971.85 -83.93L994.82 237.66" stroke="#132e65" stroke-width="1.5"></path><path d="M1009.3 54.42L1009.3 54.42" stroke="#132e65" stroke-width="1.5"></path><path d="M1009.3 54.42L1094.87 53.1" stroke="#132e65" stroke-width="1.5"></path><path d="M1009.3 54.42L1116.5 193.63" stroke="#132e65" stroke-width="1.5"></path><path d="M994.82 237.66L994.82 237.66" stroke="#132e65" stroke-width="1.5"></path><path d="M994.82 237.66L1116.5 193.63" stroke="#132e65" stroke-width="1.5"></path><path d="M994.82 237.66L942.21 375.97" stroke="#132e65" stroke-width="1.5"></path><path d="M942.21 375.97L942.21 375.97" stroke="#132e65" stroke-width="1.5"></path><path d="M942.21 375.97L1003.07 520.18" stroke="#132e65" stroke-width="1.5"></path><path d="M942.21 375.97L1106.1 387.2" stroke="#132e65" stroke-width="1.5"></path><path d="M1003.07 520.18L1003.07 520.18" stroke="#132e65" stroke-width="1.5"></path><path d="M1003.07 520.18L1099.62 533.27" stroke="#132e65" stroke-width="1.5"></path><path d="M942.36 691.43L942.36 691.43" stroke="#132e65" stroke-width="1.5"></path><path d="M942.36 691.43L1003.07 520.18" stroke="#132e65" stroke-width="1.5"></path><path d="M942.36 691.43L851.6 526.85" stroke="#132e65" stroke-width="1.5"></path><path d="M1094.87 53.1L1094.87 53.1" stroke="#132e65" stroke-width="1.5"></path><path d="M1094.87 53.1L1116.5 193.63" stroke="#132e65" stroke-width="1.5"></path><path d="M1116.5 193.63L1116.5 193.63" stroke="#132e65" stroke-width="1.5"></path><path d="M1106.1 387.2L1106.1 387.2" stroke="#132e65" stroke-width="1.5"></path><path d="M1106.1 387.2L1099.62 533.27" stroke="#132e65" stroke-width="1.5"></path><path d="M1099.62 533.27L1099.62 533.27" stroke="#132e65" stroke-width="1.5"></path><path d="M1099.62 533.27L1150.27 638.52" stroke="#132e65" stroke-width="1.5"></path><path d="M1099.62 533.27L1278.9 520.91" stroke="#132e65" stroke-width="1.5"></path><path d="M1150.27 638.52L1150.27 638.52" stroke="#132e65" stroke-width="1.5"></path><path d="M1150.27 638.52L1301.55 658.21" stroke="#132e65" stroke-width="1.5"></path><path d="M1150.27 638.52L1278.9 520.91" stroke="#132e65" stroke-width="1.5"></path><path d="M1150.27 638.52L1003.07 520.18" stroke="#132e65" stroke-width="1.5"></path><path d="M1150.27 638.52L942.36 691.43" stroke="#132e65" stroke-width="1.5"></path><path d="M1251.85 -85.66L1251.85 -85.66" stroke="#132e65" stroke-width="1.5"></path><path d="M1251.85 -85.66L1285.44 65.79" stroke="#132e65" stroke-width="1.5"></path><path d="M1251.85 -85.66L1415.95 -52.8" stroke="#132e65" stroke-width="1.5"></path><path d="M1285.44 65.79L1285.44 65.79" stroke="#132e65" stroke-width="1.5"></path><path d="M1285.44 65.79L1413.07 67.99" stroke="#132e65" stroke-width="1.5"></path><path d="M1285.44 65.79L1415.95 -52.8" stroke="#132e65" stroke-width="1.5"></path><path d="M1285.44 65.79L1094.87 53.1" stroke="#132e65" stroke-width="1.5"></path><path d="M1285.44 65.79L1116.5 193.63" stroke="#132e65" stroke-width="1.5"></path><path d="M1285.44 65.79L1430.76 256.19" stroke="#132e65" stroke-width="1.5"></path><path d="M1284.66 393.66L1284.66 393.66" stroke="#132e65" stroke-width="1.5"></path><path d="M1284.66 393.66L1278.9 520.91" stroke="#132e65" stroke-width="1.5"></path><path d="M1284.66 393.66L1432.82 350.16" stroke="#132e65" stroke-width="1.5"></path><path d="M1284.66 393.66L1411.92 514.37" stroke="#132e65" stroke-width="1.5"></path><path d="M1284.66 393.66L1106.1 387.2" stroke="#132e65" stroke-width="1.5"></path><path d="M1278.9 520.91L1278.9 520.91" stroke="#132e65" stroke-width="1.5"></path><path d="M1278.9 520.91L1411.92 514.37" stroke="#132e65" stroke-width="1.5"></path><path d="M1278.9 520.91L1301.55 658.21" stroke="#132e65" stroke-width="1.5"></path><path d="M1301.55 658.21L1301.55 658.21" stroke="#132e65" stroke-width="1.5"></path><path d="M1301.55 658.21L1393.63 643.83" stroke="#132e65" stroke-width="1.5"></path><path d="M1415.95 -52.8L1415.95 -52.8" stroke="#132e65" stroke-width="1.5"></path><path d="M1415.95 -52.8L1413.07 67.99" stroke="#132e65" stroke-width="1.5"></path><path d="M1413.07 67.99L1413.07 67.99" stroke="#132e65" stroke-width="1.5"></path><path d="M1413.07 67.99L1430.76 256.19" stroke="#132e65" stroke-width="1.5"></path><path d="M1413.07 67.99L1611.41 42.4" stroke="#132e65" stroke-width="1.5"></path><path d="M1413.07 67.99L1251.85 -85.66" stroke="#132e65" stroke-width="1.5"></path><path d="M1413.07 67.99L1586.15 -102.23" stroke="#132e65" stroke-width="1.5"></path><path d="M1430.76 256.19L1430.76 256.19" stroke="#132e65" stroke-width="1.5"></path><path d="M1430.76 256.19L1432.82 350.16" stroke="#132e65" stroke-width="1.5"></path><path d="M1430.76 256.19L1585.99 252.82" stroke="#132e65" stroke-width="1.5"></path><path d="M1432.82 350.16L1432.82 350.16" stroke="#132e65" stroke-width="1.5"></path><path d="M1432.82 350.16L1550.23 396.03" stroke="#132e65" stroke-width="1.5"></path><path d="M1411.92 514.37L1411.92 514.37" stroke="#132e65" stroke-width="1.5"></path><path d="M1411.92 514.37L1393.63 643.83" stroke="#132e65" stroke-width="1.5"></path><path d="M1411.92 514.37L1554.07 545.74" stroke="#132e65" stroke-width="1.5"></path><path d="M1411.92 514.37L1432.82 350.16" stroke="#132e65" stroke-width="1.5"></path><path d="M1393.63 643.83L1393.63 643.83" stroke="#132e65" stroke-width="1.5"></path><path d="M1393.63 643.83L1278.9 520.91" stroke="#132e65" stroke-width="1.5"></path><path d="M1586.15 -102.23L1586.15 -102.23" stroke="#132e65" stroke-width="1.5"></path><path d="M1586.15 -102.23L1611.41 42.4" stroke="#132e65" stroke-width="1.5"></path><path d="M1586.15 -102.23L1415.95 -52.8" stroke="#132e65" stroke-width="1.5"></path><path d="M1586.15 -102.23L1251.85 -85.66" stroke="#132e65" stroke-width="1.5"></path><path d="M1586.15 -102.23L1285.44 65.79" stroke="#132e65" stroke-width="1.5"></path><path d="M1611.41 42.4L1611.41 42.4" stroke="#132e65" stroke-width="1.5"></path><path d="M1611.41 42.4L1585.99 252.82" stroke="#132e65" stroke-width="1.5"></path><path d="M1611.41 42.4L1415.95 -52.8" stroke="#132e65" stroke-width="1.5"></path><path d="M1611.41 42.4L1430.76 256.19" stroke="#132e65" stroke-width="1.5"></path><path d="M1611.41 42.4L1285.44 65.79" stroke="#132e65" stroke-width="1.5"></path><path d="M1585.99 252.82L1585.99 252.82" stroke="#132e65" stroke-width="1.5"></path><path d="M1585.99 252.82L1550.23 396.03" stroke="#132e65" stroke-width="1.5"></path><path d="M1585.99 252.82L1432.82 350.16" stroke="#132e65" stroke-width="1.5"></path><path d="M1585.99 252.82L1413.07 67.99" stroke="#132e65" stroke-width="1.5"></path><path d="M1585.99 252.82L1554.07 545.74" stroke="#132e65" stroke-width="1.5"></path><path d="M1550.23 396.03L1550.23 396.03" stroke="#132e65" stroke-width="1.5"></path><path d="M1554.07 545.74L1554.07 545.74" stroke="#132e65" stroke-width="1.5"></path><path d="M1554.07 545.74L1604.03 676.39" stroke="#132e65" stroke-width="1.5"></path><path d="M1554.07 545.74L1550.23 396.03" stroke="#132e65" stroke-width="1.5"></path><path d="M1554.07 545.74L1393.63 643.83" stroke="#132e65" stroke-width="1.5"></path><path d="M1554.07 545.74L1432.82 350.16" stroke="#132e65" stroke-width="1.5"></path><path d="M1554.07 545.74L1278.9 520.91" stroke="#132e65" stroke-width="1.5"></path><path d="M1604.03 676.39L1604.03 676.39" stroke="#132e65" stroke-width="1.5"></path><path d="M1604.03 676.39L1393.63 643.83" stroke="#132e65" stroke-width="1.5"></path><path d="M1604.03 676.39L1411.92 514.37" stroke="#132e65" stroke-width="1.5"></path><circle r="5" cx="-90.3" cy="396.54" fill="#132e65"></circle><circle r="5" cx="-48.5" cy="518.84" fill="#132e65"></circle><circle r="5" cx="-37.67" cy="669.63" fill="#132e65"></circle><circle r="5" cx="46.4" cy="357.6" fill="#132e65"></circle><circle r="5" cx="45.47" cy="556.93" fill="#132e65"></circle><circle r="5" cx="93.52" cy="657.36" fill="#132e65"></circle><circle r="5" cx="195.88" cy="389.71" fill="#132e65"></circle><circle r="5" cx="241.15" cy="516.09" fill="#132e65"></circle><circle r="5" cx="193.06" cy="705.85" fill="#132e65"></circle><circle r="5" cx="372.88" cy="364.49" fill="#132e65"></circle><circle r="5" cx="399.58" cy="501.03" fill="#132e65"></circle><circle r="5" cx="359.84" cy="646.76" fill="#132e65"></circle><circle r="5" cx="558.65" cy="344.69" fill="#132e65"></circle><circle r="5" cx="550.01" cy="560.97" fill="#132e65"></circle><circle r="5" cx="505.06" cy="650.47" fill="#132e65"></circle><circle r="5" cx="665.94" cy="227.69" fill="#132e65"></circle><circle r="5" cx="705.7" cy="360.79" fill="#132e65"></circle><circle r="5" cx="684.8" cy="545.6" fill="#132e65"></circle><circle r="5" cx="696.53" cy="651.62" fill="#132e65"></circle><circle r="5" cx="859.77" cy="61.42" fill="#132e65"></circle><circle r="5" cx="856.12" cy="251.94" fill="#132e65"></circle><circle r="5" cx="851.6" cy="526.85" fill="#132e65"></circle><circle r="5" cx="849.27" cy="707.74" fill="#132e65"></circle><circle r="5" cx="971.85" cy="-83.93" fill="#132e65"></circle><circle r="5" cx="1009.3" cy="54.42" fill="#132e65"></circle><circle r="5" cx="994.82" cy="237.66" fill="#132e65"></circle><circle r="5" cx="942.21" cy="375.97" fill="#132e65"></circle><circle r="5" cx="1003.07" cy="520.18" fill="#132e65"></circle><circle r="5" cx="942.36" cy="691.43" fill="#132e65"></circle><circle r="5" cx="1094.87" cy="53.1" fill="#132e65"></circle><circle r="5" cx="1116.5" cy="193.63" fill="#132e65"></circle><circle r="5" cx="1106.1" cy="387.2" fill="#132e65"></circle><circle r="5" cx="1099.62" cy="533.27" fill="#132e65"></circle><circle r="5" cx="1150.27" cy="638.52" fill="#132e65"></circle><circle r="5" cx="1251.85" cy="-85.66" fill="#132e65"></circle><circle r="5" cx="1285.44" cy="65.79" fill="#132e65"></circle><circle r="5" cx="1284.66" cy="393.66" fill="#132e65"></circle><circle r="5" cx="1278.9" cy="520.91" fill="#132e65"></circle><circle r="5" cx="1301.55" cy="658.21" fill="#132e65"></circle><circle r="5" cx="1415.95" cy="-52.8" fill="#132e65"></circle><circle r="5" cx="1413.07" cy="67.99" fill="#132e65"></circle><circle r="5" cx="1430.76" cy="256.19" fill="#132e65"></circle><circle r="5" cx="1432.82" cy="350.16" fill="#132e65"></circle><circle r="5" cx="1411.92" cy="514.37" fill="#132e65"></circle><circle r="5" cx="1393.63" cy="643.83" fill="#132e65"></circle><circle r="5" cx="1586.15" cy="-102.23" fill="#132e65"></circle><circle r="5" cx="1611.41" cy="42.4" fill="#132e65"></circle><circle r="5" cx="1585.99" cy="252.82" fill="#132e65"></circle><circle r="5" cx="1550.23" cy="396.03" fill="#132e65"></circle><circle r="5" cx="1554.07" cy="545.74" fill="#132e65"></circle><circle r="5" cx="1604.03" cy="676.39" fill="#132e65"></circle><path d="M73.29 648.71L73.29 648.71" stroke="hsl(228.5, 77.2%, 51.5%)" stroke-width="1.5"></path><path d="M73.29 648.71L73.07 540.93" stroke="hsl(228.5, 77.2%, 51.5%)" stroke-width="1.5"></path><path d="M73.29 648.71L-72.36 640.82" stroke="hsl(228.5, 77.2%, 51.5%)" stroke-width="1.5"></path><path d="M73.29 648.71L-101.25 515.23" stroke="hsl(228.5, 77.2%, 51.5%)" stroke-width="1.5"></path><path d="M73.29 648.71L248.83 505.68" stroke="hsl(228.5, 77.2%, 51.5%)" stroke-width="1.5"></path><path d="M73.29 648.71L404.03 665.16" stroke="hsl(228.5, 77.2%, 51.5%)" stroke-width="1.5"></path><path d="M73.29 648.71L373.03 490.71" stroke="hsl(228.5, 77.2%, 51.5%)" stroke-width="1.5"></path><path d="M373.03 490.71L373.03 490.71" stroke="hsl(228.5, 77.2%, 51.5%)" stroke-width="1.5"></path><path d="M373.03 490.71L248.83 505.68" stroke="hsl(228.5, 77.2%, 51.5%)" stroke-width="1.5"></path><path d="M373.03 490.71L494.95 532.85" stroke="hsl(228.5, 77.2%, 51.5%)" stroke-width="1.5"></path><path d="M373.03 490.71L526.34 409.07" stroke="hsl(228.5, 77.2%, 51.5%)" stroke-width="1.5"></path><path d="M373.03 490.71L404.03 665.16" stroke="hsl(228.5, 77.2%, 51.5%)" stroke-width="1.5"></path><path d="M373.03 490.71L541.57 669.62" stroke="hsl(228.5, 77.2%, 51.5%)" stroke-width="1.5"></path><path d="M669.66 640.64L669.66 640.64" stroke="hsl(228.5, 77.2%, 51.5%)" stroke-width="1.5"></path><path d="M669.66 640.64L679.53 530.08" stroke="hsl(228.5, 77.2%, 51.5%)" stroke-width="1.5"></path><path d="M669.66 640.64L541.57 669.62" stroke="hsl(228.5, 77.2%, 51.5%)" stroke-width="1.5"></path><path d="M669.66 640.64L798.23 708.93" stroke="hsl(228.5, 77.2%, 51.5%)" stroke-width="1.5"></path><path d="M811.84 508.25L811.84 508.25" stroke="hsl(228.5, 77.2%, 51.5%)" stroke-width="1.5"></path><path d="M811.84 508.25L679.53 530.08" stroke="hsl(228.5, 77.2%, 51.5%)" stroke-width="1.5"></path><path d="M811.84 508.25L975.76 523.19" stroke="hsl(228.5, 77.2%, 51.5%)" stroke-width="1.5"></path><path d="M811.84 508.25L708.16 373.14" stroke="hsl(228.5, 77.2%, 51.5%)" stroke-width="1.5"></path><path d="M811.84 508.25L669.66 640.64" stroke="hsl(228.5, 77.2%, 51.5%)" stroke-width="1.5"></path><path d="M811.84 508.25L798.23 708.93" stroke="hsl(228.5, 77.2%, 51.5%)" stroke-width="1.5"></path><path d="M798.23 708.93L798.23 708.93" stroke="hsl(228.5, 77.2%, 51.5%)" stroke-width="1.5"></path><path d="M798.23 708.93L997.91 639.06" stroke="hsl(228.5, 77.2%, 51.5%)" stroke-width="1.5"></path><path d="M997.91 639.06L997.91 639.06" stroke="hsl(228.5, 77.2%, 51.5%)" stroke-width="1.5"></path><path d="M997.91 639.06L975.76 523.19" stroke="hsl(228.5, 77.2%, 51.5%)" stroke-width="1.5"></path><path d="M997.91 639.06L1101.59 527.11" stroke="hsl(228.5, 77.2%, 51.5%)" stroke-width="1.5"></path><path d="M997.91 639.06L1151.45 690.59" stroke="hsl(228.5, 77.2%, 51.5%)" stroke-width="1.5"></path><path d="M997.91 639.06L811.84 508.25" stroke="hsl(228.5, 77.2%, 51.5%)" stroke-width="1.5"></path><path d="M1101.59 527.11L1101.59 527.11" stroke="hsl(228.5, 77.2%, 51.5%)" stroke-width="1.5"></path><path d="M1101.59 527.11L975.76 523.19" stroke="hsl(228.5, 77.2%, 51.5%)" stroke-width="1.5"></path><path d="M1101.59 527.11L1004.93 388.61" stroke="hsl(228.5, 77.2%, 51.5%)" stroke-width="1.5"></path><path d="M1237.68 395.36L1237.68 395.36" stroke="hsl(228.5, 77.2%, 51.5%)" stroke-width="1.5"></path><path d="M1237.68 395.36L1087.92 350.13" stroke="hsl(228.5, 77.2%, 51.5%)" stroke-width="1.5"></path><path d="M1237.68 395.36L1425.58 393.9" stroke="hsl(228.5, 77.2%, 51.5%)" stroke-width="1.5"></path><path d="M1237.68 395.36L1101.59 527.11" stroke="hsl(228.5, 77.2%, 51.5%)" stroke-width="1.5"></path><path d="M1237.68 395.36L1269.37 191.7" stroke="hsl(228.5, 77.2%, 51.5%)" stroke-width="1.5"></path><path d="M1237.68 395.36L1419.13 520.67" stroke="hsl(228.5, 77.2%, 51.5%)" stroke-width="1.5"></path><path d="M1261.3 661.29L1261.3 661.29" stroke="hsl(228.5, 77.2%, 51.5%)" stroke-width="1.5"></path><path d="M1261.3 661.29L1151.45 690.59" stroke="hsl(228.5, 77.2%, 51.5%)" stroke-width="1.5"></path><path d="M1261.3 661.29L1444.82 664.12" stroke="hsl(228.5, 77.2%, 51.5%)" stroke-width="1.5"></path><path d="M1414.48 -108.07L1414.48 -108.07" stroke="hsl(228.5, 77.2%, 51.5%)" stroke-width="1.5"></path><path d="M1414.48 -108.07L1541.15 -98.17" stroke="hsl(228.5, 77.2%, 51.5%)" stroke-width="1.5"></path><path d="M1414.48 -108.07L1255.13 -105.72" stroke="hsl(228.5, 77.2%, 51.5%)" stroke-width="1.5"></path><path d="M1414.48 -108.07L1301.21 46.93" stroke="hsl(228.5, 77.2%, 51.5%)" stroke-width="1.5"></path><path d="M1414.48 -108.07L1437.74 94.53" stroke="hsl(228.5, 77.2%, 51.5%)" stroke-width="1.5"></path><path d="M1414.48 -108.07L1581.22 45" stroke="hsl(228.5, 77.2%, 51.5%)" stroke-width="1.5"></path><path d="M1414.48 -108.07L1269.37 191.7" stroke="hsl(228.5, 77.2%, 51.5%)" stroke-width="1.5"></path><path d="M-101.25 515.23L-101.25 515.23" stroke="hsl(228.5, 77.2%, 51.5%)" stroke-width="1.5"></path><path d="M-101.25 515.23L-72.36 640.82" stroke="hsl(228.5, 77.2%, 51.5%)" stroke-width="1.5"></path><path d="M-101.25 515.23L73.07 540.93" stroke="hsl(228.5, 77.2%, 51.5%)" stroke-width="1.5"></path><path d="M-72.36 640.82L-72.36 640.82" stroke="hsl(228.5, 77.2%, 51.5%)" stroke-width="1.5"></path><path d="M-72.36 640.82L73.07 540.93" stroke="hsl(228.5, 77.2%, 51.5%)" stroke-width="1.5"></path><path d="M-72.36 640.82L248.83 505.68" stroke="hsl(228.5, 77.2%, 51.5%)" stroke-width="1.5"></path><path d="M-72.36 640.82L373.03 490.71" stroke="hsl(228.5, 77.2%, 51.5%)" stroke-width="1.5"></path><path d="M73.07 540.93L73.07 540.93" stroke="hsl(228.5, 77.2%, 51.5%)" stroke-width="1.5"></path><path d="M248.83 505.68L248.83 505.68" stroke="hsl(228.5, 77.2%, 51.5%)" stroke-width="1.5"></path><path d="M248.83 505.68L73.07 540.93" stroke="hsl(228.5, 77.2%, 51.5%)" stroke-width="1.5"></path><path d="M248.83 505.68L404.03 665.16" stroke="hsl(228.5, 77.2%, 51.5%)" stroke-width="1.5"></path><path d="M248.83 505.68L494.95 532.85" stroke="hsl(228.5, 77.2%, 51.5%)" stroke-width="1.5"></path><path d="M404.03 665.16L404.03 665.16" stroke="hsl(228.5, 77.2%, 51.5%)" stroke-width="1.5"></path><path d="M404.03 665.16L541.57 669.62" stroke="hsl(228.5, 77.2%, 51.5%)" stroke-width="1.5"></path><path d="M404.03 665.16L494.95 532.85" stroke="hsl(228.5, 77.2%, 51.5%)" stroke-width="1.5"></path><path d="M526.34 409.07L526.34 409.07" stroke="hsl(228.5, 77.2%, 51.5%)" stroke-width="1.5"></path><path d="M526.34 409.07L494.95 532.85" stroke="hsl(228.5, 77.2%, 51.5%)" stroke-width="1.5"></path><path d="M494.95 532.85L494.95 532.85" stroke="hsl(228.5, 77.2%, 51.5%)" stroke-width="1.5"></path><path d="M494.95 532.85L541.57 669.62" stroke="hsl(228.5, 77.2%, 51.5%)" stroke-width="1.5"></path><path d="M541.57 669.62L541.57 669.62" stroke="hsl(228.5, 77.2%, 51.5%)" stroke-width="1.5"></path><path d="M708.16 373.14L708.16 373.14" stroke="hsl(228.5, 77.2%, 51.5%)" stroke-width="1.5"></path><path d="M708.16 373.14L679.53 530.08" stroke="hsl(228.5, 77.2%, 51.5%)" stroke-width="1.5"></path><path d="M708.16 373.14L526.34 409.07" stroke="hsl(228.5, 77.2%, 51.5%)" stroke-width="1.5"></path><path d="M679.53 530.08L679.53 530.08" stroke="hsl(228.5, 77.2%, 51.5%)" stroke-width="1.5"></path><path d="M679.53 530.08L494.95 532.85" stroke="hsl(228.5, 77.2%, 51.5%)" stroke-width="1.5"></path><path d="M679.53 530.08L526.34 409.07" stroke="hsl(228.5, 77.2%, 51.5%)" stroke-width="1.5"></path><path d="M679.53 530.08L541.57 669.62" stroke="hsl(228.5, 77.2%, 51.5%)" stroke-width="1.5"></path><path d="M1004.93 388.61L1004.93 388.61" stroke="hsl(228.5, 77.2%, 51.5%)" stroke-width="1.5"></path><path d="M1004.93 388.61L1087.92 350.13" stroke="hsl(228.5, 77.2%, 51.5%)" stroke-width="1.5"></path><path d="M1004.93 388.61L975.76 523.19" stroke="hsl(228.5, 77.2%, 51.5%)" stroke-width="1.5"></path><path d="M1004.93 388.61L1130.25 201.89" stroke="hsl(228.5, 77.2%, 51.5%)" stroke-width="1.5"></path><path d="M1004.93 388.61L811.84 508.25" stroke="hsl(228.5, 77.2%, 51.5%)" stroke-width="1.5"></path><path d="M975.76 523.19L975.76 523.19" stroke="hsl(228.5, 77.2%, 51.5%)" stroke-width="1.5"></path><path d="M975.76 523.19L1087.92 350.13" stroke="hsl(228.5, 77.2%, 51.5%)" stroke-width="1.5"></path><path d="M975.76 523.19L1151.45 690.59" stroke="hsl(228.5, 77.2%, 51.5%)" stroke-width="1.5"></path><path d="M1130.25 201.89L1130.25 201.89" stroke="hsl(228.5, 77.2%, 51.5%)" stroke-width="1.5"></path><path d="M1130.25 201.89L1269.37 191.7" stroke="hsl(228.5, 77.2%, 51.5%)" stroke-width="1.5"></path><path d="M1130.25 201.89L1087.92 350.13" stroke="hsl(228.5, 77.2%, 51.5%)" stroke-width="1.5"></path><path d="M1130.25 201.89L1237.68 395.36" stroke="hsl(228.5, 77.2%, 51.5%)" stroke-width="1.5"></path><path d="M1130.25 201.89L1301.21 46.93" stroke="hsl(228.5, 77.2%, 51.5%)" stroke-width="1.5"></path><path d="M1130.25 201.89L1437.74 94.53" stroke="hsl(228.5, 77.2%, 51.5%)" stroke-width="1.5"></path><path d="M1087.92 350.13L1087.92 350.13" stroke="hsl(228.5, 77.2%, 51.5%)" stroke-width="1.5"></path><path d="M1087.92 350.13L1101.59 527.11" stroke="hsl(228.5, 77.2%, 51.5%)" stroke-width="1.5"></path><path d="M1087.92 350.13L1269.37 191.7" stroke="hsl(228.5, 77.2%, 51.5%)" stroke-width="1.5"></path><path d="M1151.45 690.59L1151.45 690.59" stroke="hsl(228.5, 77.2%, 51.5%)" stroke-width="1.5"></path><path d="M1151.45 690.59L1101.59 527.11" stroke="hsl(228.5, 77.2%, 51.5%)" stroke-width="1.5"></path><path d="M1151.45 690.59L1444.82 664.12" stroke="hsl(228.5, 77.2%, 51.5%)" stroke-width="1.5"></path><path d="M1255.13 -105.72L1255.13 -105.72" stroke="hsl(228.5, 77.2%, 51.5%)" stroke-width="1.5"></path><path d="M1255.13 -105.72L1301.21 46.93" stroke="hsl(228.5, 77.2%, 51.5%)" stroke-width="1.5"></path><path d="M1255.13 -105.72L1437.74 94.53" stroke="hsl(228.5, 77.2%, 51.5%)" stroke-width="1.5"></path><path d="M1301.21 46.93L1301.21 46.93" stroke="hsl(228.5, 77.2%, 51.5%)" stroke-width="1.5"></path><path d="M1301.21 46.93L1437.74 94.53" stroke="hsl(228.5, 77.2%, 51.5%)" stroke-width="1.5"></path><path d="M1301.21 46.93L1269.37 191.7" stroke="hsl(228.5, 77.2%, 51.5%)" stroke-width="1.5"></path><path d="M1301.21 46.93L1461.57 259.65" stroke="hsl(228.5, 77.2%, 51.5%)" stroke-width="1.5"></path><path d="M1269.37 191.7L1269.37 191.7" stroke="hsl(228.5, 77.2%, 51.5%)" stroke-width="1.5"></path><path d="M1437.74 94.53L1437.74 94.53" stroke="hsl(228.5, 77.2%, 51.5%)" stroke-width="1.5"></path><path d="M1437.74 94.53L1581.22 45" stroke="hsl(228.5, 77.2%, 51.5%)" stroke-width="1.5"></path><path d="M1437.74 94.53L1461.57 259.65" stroke="hsl(228.5, 77.2%, 51.5%)" stroke-width="1.5"></path><path d="M1437.74 94.53L1538.38 259.1" stroke="hsl(228.5, 77.2%, 51.5%)" stroke-width="1.5"></path><path d="M1437.74 94.53L1269.37 191.7" stroke="hsl(228.5, 77.2%, 51.5%)" stroke-width="1.5"></path><path d="M1461.57 259.65L1461.57 259.65" stroke="hsl(228.5, 77.2%, 51.5%)" stroke-width="1.5"></path><path d="M1461.57 259.65L1538.38 259.1" stroke="hsl(228.5, 77.2%, 51.5%)" stroke-width="1.5"></path><path d="M1461.57 259.65L1569.64 339.48" stroke="hsl(228.5, 77.2%, 51.5%)" stroke-width="1.5"></path><path d="M1461.57 259.65L1425.58 393.9" stroke="hsl(228.5, 77.2%, 51.5%)" stroke-width="1.5"></path><path d="M1461.57 259.65L1269.37 191.7" stroke="hsl(228.5, 77.2%, 51.5%)" stroke-width="1.5"></path><path d="M1425.58 393.9L1425.58 393.9" stroke="hsl(228.5, 77.2%, 51.5%)" stroke-width="1.5"></path><path d="M1425.58 393.9L1419.13 520.67" stroke="hsl(228.5, 77.2%, 51.5%)" stroke-width="1.5"></path><path d="M1425.58 393.9L1569.64 339.48" stroke="hsl(228.5, 77.2%, 51.5%)" stroke-width="1.5"></path><path d="M1425.58 393.9L1538.38 259.1" stroke="hsl(228.5, 77.2%, 51.5%)" stroke-width="1.5"></path><path d="M1425.58 393.9L1608.53 513.98" stroke="hsl(228.5, 77.2%, 51.5%)" stroke-width="1.5"></path><path d="M1419.13 520.67L1419.13 520.67" stroke="hsl(228.5, 77.2%, 51.5%)" stroke-width="1.5"></path><path d="M1419.13 520.67L1444.82 664.12" stroke="hsl(228.5, 77.2%, 51.5%)" stroke-width="1.5"></path><path d="M1444.82 664.12L1444.82 664.12" stroke="hsl(228.5, 77.2%, 51.5%)" stroke-width="1.5"></path><path d="M1444.82 664.12L1575.17 643.69" stroke="hsl(228.5, 77.2%, 51.5%)" stroke-width="1.5"></path><path d="M1541.15 -98.17L1541.15 -98.17" stroke="hsl(228.5, 77.2%, 51.5%)" stroke-width="1.5"></path><path d="M1541.15 -98.17L1581.22 45" stroke="hsl(228.5, 77.2%, 51.5%)" stroke-width="1.5"></path><path d="M1581.22 45L1581.22 45" stroke="hsl(228.5, 77.2%, 51.5%)" stroke-width="1.5"></path><path d="M1538.38 259.1L1538.38 259.1" stroke="hsl(228.5, 77.2%, 51.5%)" stroke-width="1.5"></path><path d="M1538.38 259.1L1569.64 339.48" stroke="hsl(228.5, 77.2%, 51.5%)" stroke-width="1.5"></path><path d="M1569.64 339.48L1569.64 339.48" stroke="hsl(228.5, 77.2%, 51.5%)" stroke-width="1.5"></path><path d="M1608.53 513.98L1608.53 513.98" stroke="hsl(228.5, 77.2%, 51.5%)" stroke-width="1.5"></path><path d="M1608.53 513.98L1575.17 643.69" stroke="hsl(228.5, 77.2%, 51.5%)" stroke-width="1.5"></path><path d="M1608.53 513.98L1569.64 339.48" stroke="hsl(228.5, 77.2%, 51.5%)" stroke-width="1.5"></path><path d="M1608.53 513.98L1419.13 520.67" stroke="hsl(228.5, 77.2%, 51.5%)" stroke-width="1.5"></path><path d="M1575.17 643.69L1575.17 643.69" stroke="hsl(228.5, 77.2%, 51.5%)" stroke-width="1.5"></path><circle r="25" cx="73.29" cy="648.71" fill="url(&quot;#SvgjsRadialGradient1001&quot;)"></circle><circle r="25" cx="373.03" cy="490.71" fill="url(&quot;#SvgjsRadialGradient1001&quot;)"></circle><circle r="25" cx="669.66" cy="640.64" fill="url(&quot;#SvgjsRadialGradient1001&quot;)"></circle><circle r="25" cx="811.84" cy="508.25" fill="url(&quot;#SvgjsRadialGradient1001&quot;)"></circle><circle r="25" cx="798.23" cy="708.93" fill="url(&quot;#SvgjsRadialGradient1001&quot;)"></circle><circle r="25" cx="997.91" cy="639.06" fill="url(&quot;#SvgjsRadialGradient1001&quot;)"></circle><circle r="25" cx="1101.59" cy="527.11" fill="url(&quot;#SvgjsRadialGradient1001&quot;)"></circle><circle r="25" cx="1237.68" cy="395.36" fill="url(&quot;#SvgjsRadialGradient1001&quot;)"></circle><circle r="25" cx="1261.3" cy="661.29" fill="url(&quot;#SvgjsRadialGradient1001&quot;)"></circle><circle r="25" cx="1414.48" cy="-108.07" fill="url(&quot;#SvgjsRadialGradient1001&quot;)"></circle><circle r="5" cx="-101.25" cy="515.23" fill="#8b9ad9"></circle><circle r="5" cx="-72.36" cy="640.82" fill="#8b9ad9"></circle><circle r="5" cx="73.07" cy="540.93" fill="#8b9ad9"></circle><circle r="5" cx="248.83" cy="505.68" fill="#8b9ad9"></circle><circle r="5" cx="404.03" cy="665.16" fill="#8b9ad9"></circle><circle r="5" cx="526.34" cy="409.07" fill="#8b9ad9"></circle><circle r="5" cx="494.95" cy="532.85" fill="#8b9ad9"></circle><circle r="5" cx="541.57" cy="669.62" fill="#8b9ad9"></circle><circle r="5" cx="708.16" cy="373.14" fill="#8b9ad9"></circle><circle r="5" cx="679.53" cy="530.08" fill="#8b9ad9"></circle><circle r="5" cx="1004.93" cy="388.61" fill="#8b9ad9"></circle><circle r="5" cx="975.76" cy="523.19" fill="#8b9ad9"></circle><circle r="5" cx="1130.25" cy="201.89" fill="#8b9ad9"></circle><circle r="5" cx="1087.92" cy="350.13" fill="#8b9ad9"></circle><circle r="5" cx="1151.45" cy="690.59" fill="#8b9ad9"></circle><circle r="5" cx="1255.13" cy="-105.72" fill="#8b9ad9"></circle><circle r="5" cx="1301.21" cy="46.93" fill="#8b9ad9"></circle><circle r="5" cx="1269.37" cy="191.7" fill="#8b9ad9"></circle><circle r="5" cx="1437.74" cy="94.53" fill="#8b9ad9"></circle><circle r="5" cx="1461.57" cy="259.65" fill="#8b9ad9"></circle><circle r="5" cx="1425.58" cy="393.9" fill="#8b9ad9"></circle><circle r="5" cx="1419.13" cy="520.67" fill="#8b9ad9"></circle><circle r="5" cx="1444.82" cy="664.12" fill="#8b9ad9"></circle><circle r="5" cx="1541.15" cy="-98.17" fill="#8b9ad9"></circle><circle r="5" cx="1581.22" cy="45" fill="#8b9ad9"></circle><circle r="5" cx="1538.38" cy="259.1" fill="#8b9ad9"></circle><circle r="5" cx="1569.64" cy="339.48" fill="#8b9ad9"></circle><circle r="5" cx="1608.53" cy="513.98" fill="#8b9ad9"></circle><circle r="5" cx="1575.17" cy="643.69" fill="#8b9ad9"></circle></g><defs><mask id="SvgjsMask1000"><rect width="1440" height="560" fill="#ffffff"></rect></mask><radialGradient id="SvgjsRadialGradient1001"><stop stop-color="#ffffff" offset="0.1"></stop><stop stop-color="#1735b3" offset="0.2"></stop><stop stop-color="rgba(23, 53, 179, 0)" offset="1"></stop></radialGradient></defs></svg>